# xmcd
#
# Track frame offsets:
#	150
#	43622
#	79637
#	107032
#
# Disc length: 2908 seconds
#
# Revision: 1
# Processed by: cddbd v1.5.2PL0 Copyright (c) Steve Scherf et al.
# Submitted via: audiograbber 1.83.01
#
DISCID=260b5a04
DTITLE=Grateful Dead - 69-12-13 Swing Auditorium, San Bernardino CA
DYEAR=1900
DGENRE=
TTITLE0=Good Lovin > Drums > Jam > Good Lovin
TTITLE1=Cumberland Blues
TTITLE2=St Stephen
TTITLE3=Turn On Your Lovelight
EXTD=
EXTT0=
EXTT1=
EXTT2=
EXTT3=
PLAYORDER=
